<svg width="1099" height="234" xmlns="http://www.w3.org/2000/svg"><g fill="#FFFFFE" fill-rule="evenodd"><path d="M383.548 111.113a7.632 7.632 0 00-13.743-4.578C317.103 176.98 271.03 213.4 228.951 217.87c-44.063 4.69-80.14-26.72-115.028-57.11-15.954-13.89-32.452-28.259-49.49-38.926-9.38-5.874-18.183-10.199-26.912-13.222-9.84-3.409-19.73-5.137-29.393-5.137a7.632 7.632 0 000 15.264c34.296 0 64.157 26.001 95.771 53.531 18.219 15.87 37.057 32.28 57.452 44.06 23.681 13.69 46.322 19.16 69.215 16.72 10.977-1.17 22.231-4.21 33.45-9.04 11.719-5.06 23.829-12.25 35.992-21.38 12.639-9.49 25.792-21.41 39.094-35.44 13.808-14.57 28.25-31.897 42.925-51.511a7.598 7.598 0 001.521-4.566"/><path d="M383.548 111.103a7.631 7.631 0 00-12.576-5.81c-36.503 31.038-67.775 43.427-98.414 38.977-27.204-3.942-50.536-20.528-75.236-38.088-25.097-17.842-51.049-36.29-82.16-41.165-17.042-2.671-33.898-1.083-51.534 4.853-19.349 6.514-39.078 18.065-60.312 35.313a7.631 7.631 0 00-1.112 10.736 7.632 7.632 0 0010.736 1.112c36.516-29.66 69.18-41.741 99.859-36.934 27.559 4.319 50.932 20.935 75.678 38.526 25.091 17.837 51.037 36.277 81.889 40.757 16.893 2.45 33.583.57 51.024-5.74 19.078-6.9 38.53-18.914 59.47-36.719a7.615 7.615 0 002.688-5.818"/><path d="M383.549 111.113a7.627 7.627 0 00-3.22-6.234c-25.063-17.758-47.645-30.182-69.037-37.98-19.51-7.111-37.646-10.216-55.443-9.491-14.931.609-29.835 3.995-45.567 10.354-13.77 5.565-26.89 12.845-39.578 19.885-43.278 24.013-84.155 46.694-159.734 16.376a7.634 7.634 0 00-9.926 4.243 7.63 7.63 0 004.243 9.924c19.599 7.862 37.678 12.631 55.271 14.58 15.789 1.748 30.751 1.163 45.743-1.788 27.53-5.419 50.04-17.909 71.809-29.987 51.26-28.442 95.529-53.005 193.393 16.34a7.633 7.633 0 0012.046-6.222"/><path d="M383.548 111.101c0-1.598-.5-3.209-1.535-4.584-26.382-35.045-50.131-60.587-72.602-78.087-21.06-16.4-40.729-25.491-60.132-27.79-9.811-1.162-19.747-.54-29.532 1.849-8.747 2.137-17.496 5.652-26.745 10.747-16.762 9.233-32.319 22.061-48.79 35.643-37.826 31.193-76.941 63.447-134.944 54.681a7.632 7.632 0 10-2.28 15.093c64.738 9.785 108.407-26.226 146.936-57.997 31.83-26.247 59.319-48.915 93.559-44.857 16.558 1.962 33.747 10.033 52.549 24.675 21.397 16.662 44.224 41.268 69.786 75.223a7.632 7.632 0 0013.73-4.596M510.816 143.66c8.099 0 12.899-4.647 12.899-11.846 0-6.3-4.499-11.7-12.899-11.7h-27.449v23.546h27.449zm-.75-41.696c7.2 0 11.7-4.65 11.7-11.099 0-6.15-4.5-10.949-11.7-10.949h-26.699v22.048h26.699zm-47.998-40.198h52.648c19.049 0 28.799 12.15 28.799 25.499 0 12.6-7.8 20.999-17.249 22.949 10.649 1.65 19.199 12 19.199 24.599 0 14.997-10.05 26.997-29.099 26.997h-54.298V61.766zM561.517 161.81h21.299V61.766h-21.299zM625.71 80.515h-29.24V61.766h79.79v18.749h-29.1v81.295h-21.45V80.515M733.56 80.065h-22.35v27.599h22.35c8.55 0 15-5.399 15-13.799 0-8.4-6.45-13.8-15-13.8zm-6.75 45.898h-15.6v35.847h-21.3V61.766h46.8c20.85 0 33.6 13.65 33.6 32.249 0 17.699-11.1 27.149-21.9 29.698l22.5 38.097h-24.45l-19.65-35.847zM786.36 161.81h21.3V61.766h-21.3zM816.81 61.766h24.3l27.75 76.947 27.6-76.947h24.29L882.21 161.81h-26.7l-38.7-100.044M930.06 61.766h70.79v18.299h-49.49v21.749h48.44v18.3h-48.44v23.246h49.49v18.45h-70.79V61.766M1061.15 80.065h-22.34v27.599h22.34c8.55 0 15-5.399 15-13.799 0-8.4-6.45-13.8-15-13.8zm-6.75 45.898h-15.59v35.847h-21.3V61.766h46.79c20.85 0 33.6 13.65 33.6 32.249 0 17.699-11.1 27.149-21.9 29.698l22.5 38.097h-24.45l-19.65-35.847z"/></g></svg>